# xmcd CD database file
#
# Track frame offsets:
#	180
#	11765
#	21693
#	32365
#	44069
#	56175
#	69125
#	80785
#	90574
#	101212
#	112433
#	122089
#	133320
#	143276
#	155416
#	166488
#
# Disc length: 2386 seconds
#
# Revision: 1
# Processed by: cddbd v1.5.2PL0 Copyright (c) Steve Scherf et al.
# Submitted via: CDex 1.51
#
DISCID=e8095010
DTITLE=Gene Chandler - Just Be True [Collectables Reissue, 1996]
DYEAR=1964
DGENRE=Soul/R&B
TTITLE0=Just Be True
TTITLE1=Little Like Lovin'
TTITLE2=It'S No Good For Me
TTITLE3=From Day To Day
TTITLE4=So Many Ways
TTITLE5=Check Yourself
TTITLE6=You Threw A Lucky Punch
TTITLE7=Walk On With The Duke
TTITLE8=Forgive Me
TTITLE9=London Town
TTITLE10=Pretty Little Girl
TTITLE11=Miracle After Miracle
TTITLE12=Tear For Tear [Bonus Track]
TTITLE13=Buddy Ain'T It A Shame [Bonus Track]
TTITLE14=No One Can Love You (Like I Do) [Bonus Track]
TTITLE15=Think Nothing About It [Bonus Track]
EXTD=YEAR: 1964
EXTT0=
EXTT1=
EXTT2=
EXTT3=
EXTT4=
EXTT5=
EXTT6=
EXTT7=
EXTT8=
EXTT9=
EXTT10=
EXTT11=
EXTT12=
EXTT13=
EXTT14=
EXTT15=
PLAYORDER=
